<svg width="24" height="24" viewBox="0 0 24 24" fill="none" xmlns="http://www.w3.org/2000/svg">
<path d="M14.1587 7.17621C14.3133 7.02005 14.4 6.80917 14.4 6.58941C14.4 6.36965 14.3133 6.15877 14.1587 6.00261C14.0827 5.92551 13.9922 5.86428 13.8924 5.82249C13.7926 5.7807 13.6855 5.75918 13.5773 5.75918C13.4691 5.75918 13.3619 5.7807 13.2621 5.82249C13.1623 5.86428 13.0718 5.92551 12.9959 6.00261L8.39986 10.6922C8.24546 10.8487 8.15888 11.0598 8.15888 11.2796C8.15888 11.4995 8.24546 11.7105 8.39986 11.867L12.9959 16.5566C13.0718 16.6337 13.1623 16.6949 13.2621 16.7367C13.3619 16.7785 13.4691 16.8 13.5773 16.8C13.6855 16.8 13.7926 16.7785 13.8924 16.7367C13.9922 16.6949 14.0827 16.6337 14.1587 16.5566C14.3133 16.4005 14.4 16.1896 14.4 15.9698C14.4 15.7501 14.3133 15.5392 14.1587 15.383L10.3895 11.2778L14.1587 7.17621Z" fill="black"/>
</svg>
